# xmcd CD database file
#
# Track frame offsets:
#	150
#	16402
#	36634
#	55354
#	80730
#	96843
#	116876
#	138588
#	159986
#	176443
#	197707
#	216536
#	240517
#	260547
#	283306
#
# Disc length: 4029 seconds
#
# Revision: 0
# Processed by: cddbd v1.5.2PL0 Copyright (c) Steve Scherf et al.
# Submitted via: CDex 1.70beta2
#
DISCID=e80fbb0f
DTITLE=Various Artist - Los Grandes Templos De La Salsa Cd 3 O'zona
DYEAR=1900
DGENRE=Salsa
TTITLE0=Joe King - Corazón Partío
TTITLE1=Edwin Rivera - Nada
TTITLE2=F2F - Dama Elegante
TTITLE3=Pedro Conga - La Va A Pagar
TTITLE4=Leo Vanelli - Vida Loca
TTITLE5=Jorge Luis - Volver
TTITLE6=Fuerza Juvenil - Cuando Acaba El Placer
TTITLE7=Harvey - Yo Nací Para Amarte
TTITLE8=Pedro Jesús - Amar Es Algo Más
TTITLE9=Johnny Ray - Así Fue
TTITLE10=Joe King - No Llores Por Mí
TTITLE11=Willie Rosario - Centírmetro A Centímetro
TTITLE12=Hijos De Los Celebres - El Nazareno
TTITLE13=Jimmy El León - Mi Bajo Y Yo
TTITLE14=Pachu - La Encontré
EXTD=
EXTT0=
EXTT1=
EXTT2=
EXTT3=
EXTT4=
EXTT5=
EXTT6=
EXTT7=
EXTT8=
EXTT9=
EXTT10=
EXTT11=
EXTT12=
EXTT13=
EXTT14=
PLAYORDER=
